<?xml version="1.0" encoding="UTF-8" standalone="no"?>
<!-- Generated by graphviz version 2.38.0 (20140413.2041)
 -->

<!-- Title: cycle Pages: 1 -->

<svg
   xmlns:dc="http://purl.org/dc/elements/1.1/"
   xmlns:cc="http://creativecommons.org/ns#"
   xmlns:rdf="http://www.w3.org/1999/02/22-rdf-syntax-ns#"
   xmlns:svg="http://www.w3.org/2000/svg"
   xmlns="http://www.w3.org/2000/svg"
   xmlns:xlink="http://www.w3.org/1999/xlink"
   xmlns:sodipodi="http://sodipodi.sourceforge.net/DTD/sodipodi-0.dtd"
   xmlns:inkscape="http://www.inkscape.org/namespaces/inkscape"
   width="869pt"
   height="704pt"
   viewBox="0.00 0.00 869.00 703.76"
   id="svg2"
   version="1.1"
   inkscape:version="0.91 r13725"
   sodipodi:docname="package-cycle.svg"
   inkscape:export-filename="/home/davidh/proyecto de grado/davidh-proyecto-grado/imagenes/package-cycle.png"
   inkscape:export-xdpi="150"
   inkscape:export-ydpi="150">
  <metadata
     id="metadata445">
    <rdf:RDF>
      <cc:Work
         rdf:about="">
        <dc:format>image/svg+xml</dc:format>
        <dc:type
           rdf:resource="http://purl.org/dc/dcmitype/StillImage" />
      </cc:Work>
    </rdf:RDF>
  </metadata>
  <defs
     id="defs443" />
  <sodipodi:namedview
     pagecolor="#ffffff"
     bordercolor="#666666"
     borderopacity="1"
     objecttolerance="10"
     gridtolerance="10"
     guidetolerance="10"
     inkscape:pageopacity="0"
     inkscape:pageshadow="2"
     inkscape:window-width="1280"
     inkscape:window-height="764"
     id="namedview441"
     showgrid="false"
     inkscape:zoom="0.86507113"
     inkscape:cx="456.2547"
     inkscape:cy="562.68896"
     inkscape:window-x="0"
     inkscape:window-y="136"
     inkscape:window-maximized="0"
     inkscape:current-layer="svg2"
     showguides="true"
     inkscape:guide-bbox="true" />
  <polygon
     style="fill:#ffffff;stroke:none"
     id="polygon7"
     points="865,-699.759 865,4 -4,4 -4,4 -4,-699.759 "
     transform="translate(4,699.759)" />
  <polygon
     points="8,-8 8,-8 8,-678.879 529,-678.879 529,-8 "
     id="polygon12"
     style="fill:#ffffff;stroke:#ffffff;stroke-width:1;stroke-miterlimit:4;stroke-dasharray:1,48;stroke-dashoffset:0"
     transform="translate(4,699.759)" />
  <text
     x="272.5"
     y="27.21398"
     font-size="14.00"
     id="text14"
     style="font-size:14px;font-family:FreeSans;text-anchor:middle">
    <tspan
       style="font-style:normal;font-variant:normal;font-weight:600;font-stretch:normal;font-family:FreeSans;-inkscape-font-specification:'FreeSans Semi-Bold'"
       id="tspan4859">Flujo de Trabajo para paquetes Debian, 2016</tspan>
  </text>
  <polygon
     points="537,-8 537,-687.759 853,-687.759 853,-8 537,-8 "
     id="polygon19"
     style="fill:none;stroke:#000000"
     transform="matrix(1.0155926,0,0,0.99998858,-9.3044059,699.75503)" />
  <text
     x="699"
     y="27.19998"
     font-size="14.00"
     id="text21"
     style="font-size:14px;font-family:FreeSans;text-anchor:middle">
    <tspan
       id="tspan4861"
       style="font-style:normal;font-variant:normal;font-weight:600;font-stretch:normal;font-family:FreeSans;-inkscape-font-specification:'FreeSans Semi-Bold'">Leyenda</tspan>
  </text>
  <polygon
     points="56.5,-516 56.5,-480 127.5,-480 127.5,-516 127.5,-516 "
     id="polygon29"
     style="fill:#ff5555;stroke:#000000"
     transform="translate(285.13295,699.759)" />
  <text
     x="377.13293"
     y="205.45901"
     font-size="14.00"
     id="text31"
     style="font-size:14px;font-family:FreeSans;text-anchor:middle">
    <tspan
       style="font-style:normal;font-variant:normal;font-weight:600;font-stretch:normal;font-family:FreeSans;-inkscape-font-specification:'FreeSans Semi-Bold'"
       id="tspan4325">inestable</tspan>
  </text>
  <polygon
     points="393,-357 393,-393 393,-393 309,-393 309,-357 "
     id="polygon39"
     style="fill:#ffdd55;stroke:#000000"
     transform="translate(4,699.759)" />
  <text
     x="355"
     y="328.45901"
     font-size="14.00"
     id="text41"
     style="font-size:14px;font-family:FreeSans;text-anchor:middle">
    <tspan
       style="-inkscape-font-specification:'FreeSans Semi-Bold';font-family:FreeSans;font-weight:600;font-style:normal;font-stretch:normal;font-variant:normal"
       id="tspan4327">en pruebas</tspan>
  </text>
  <path
     sodipodi:nodetypes="cc"
     d="m 376.96018,220.10992 -0.98256,77.05674"
     id="path49"
     inkscape:connector-curvature="0"
     style="fill:none;stroke:#000000" />
  <polygon
     points="303.832,-394.173 306.795,-400.515 306.795,-400.515 314.374,-393.111 "
     id="polygon51"
     style="fill:#000000;stroke:#000000"
     transform="matrix(0.43073096,0.90248039,-0.90248039,0.43073096,-114.09347,190.93936)" />
  <polygon
     points="521,-480 521,-516 521,-516 427,-516 427,-480 "
     id="polygon59"
     style="fill:#ff5555;stroke:#000000"
     transform="translate(4,699.759)" />
  <text
     x="478"
     y="205.45901"
     font-size="14.00"
     id="text61"
     style="font-size:14px;font-family:FreeSans;text-anchor:middle">experimental</text>
  <polygon
     points="145.5,-516 145.5,-480 388.5,-480 388.5,-516 388.5,-516 "
     id="polygon69"
     style="fill:#ff5555;stroke:#000000"
     transform="translate(-68.132796,699.759)" />
  <text
     x="198.86719"
     y="205.45901"
     font-size="14.00"
     id="text71"
     style="font-size:14px;font-family:FreeSans;text-anchor:middle">actualizaciones propuestas a pruebas</text>
  <g
     class="edge"
     id="edge16"
     transform="translate(4,699.759)">
    <title
       id="title74">tpu-&gt;testing</title>
    <g
       id="a_edge16">
      <a
         id="a77"
         xlink:href="https://wiki.debian.org/Teams/ReleaseTeam">
        <path
           style="fill:none;stroke:#000000"
           inkscape:connector-curvature="0"
           id="path79"
           d="m 278.857,-479.92 c 14.489,20.87 39.092,56.311 55.479,79.916" />
        <circle
           style="fill:#000000;stroke:#000000"
           r="4.00002"
           id="ellipse81"
           cy="-396.67001"
           cx="336.64999" />
      </a>
    </g>
  </g>
  <polygon
     points="362,-248 362,-284 362,-284 302,-284 302,-248 "
     id="polygon89"
     style="fill:#2ca02c;stroke:#000000"
     transform="translate(4,699.759)" />
  <text
     x="336"
     y="437.45901"
     font-size="14.00"
     id="text91"
     style="font-size:14px;font-family:FreeSans;text-anchor:middle">
    <tspan
       style="-inkscape-font-specification:'FreeSans Semi-Bold';font-family:FreeSans;font-weight:600;font-style:normal;font-stretch:normal;font-variant:normal"
       id="tspan4329">estable</tspan>
  </text>
  <path
     sodipodi:nodetypes="cc"
     d="M 340.8304,342.62317 340.806,404.5359"
     id="path96"
     inkscape:connector-curvature="0"
     style="fill:none;stroke:#000000;stroke-width:0.98708624" />
  <polygon
     points="340.24,-293.383 340.24,-293.383 335.045,-284.149 333.347,-294.607 "
     id="polygon98"
     style="fill:none;stroke:#000000"
     transform="matrix(0.98480365,-0.17367145,0.17367145,0.98480365,60.333708,752.47344)" />
  <polygon
     points="456,-248 456,-284 456,-284 380,-284 380,-248 "
     id="polygon106"
     style="fill:#2ca02c;stroke:#000000"
     transform="translate(4,699.759)" />
  <text
     x="422"
     y="437.45901"
     font-size="14.00"
     id="text108"
     style="font-size:14px;font-family:FreeSans;text-anchor:middle">backports</text>
  <polygon
     points="274,-357 274,-393 274,-393 36,-393 36,-357 "
     id="polygon116"
     style="fill:#ffdd55;stroke:#000000"
     transform="translate(4,699.759)" />
  <text
     x="159"
     y="328.45901"
     font-size="14.00"
     id="text118"
     style="font-size:14px;font-family:FreeSans;text-anchor:middle">actualizaciones propuestas a estable</text>
  <g
     class="edge"
     id="edge15"
     transform="translate(4,699.759)">
    <title
       id="title121">pu-&gt;testing</title>
    <g
       id="a_edge15">
      <a
         id="a124"
         xlink:href="https://wiki.debian.org/Teams/ReleaseTeam">
        <path
           style="fill:none;stroke:#000000;stroke-dasharray:5, 2"
           inkscape:connector-curvature="0"
           id="path126"
           d="m 274.055,-375 c 8.898,0 17.796,0 26.694,0" />
        <circle
           style="fill:#000000;stroke:#000000"
           r="4"
           id="ellipse128"
           cy="-375"
           cx="304.92099" />
      </a>
    </g>
  </g>
  <g
     class="edge"
     id="edge14"
     transform="translate(4,699.759)">
    <title
       id="title131">pu-&gt;stable</title>
    <g
       id="a_edge14">
      <a
         id="a134"
         xlink:href="https://wiki.debian.org/Teams/ReleaseTeam">
        <path
           style="fill:none;stroke:#000000"
           inkscape:connector-curvature="0"
           id="path136"
           d="m 183.438,-356.809 c 30.708,18.564 79.682,48.17 112.934,68.271" />
        <circle
           style="fill:#000000;stroke:#000000"
           r="4.00002"
           id="ellipse138"
           cy="-286.21799"
           cx="300.20901" />
      </a>
    </g>
  </g>
  <polygon
     points="284,-248 284,-284 284,-284 110,-284 110,-248 "
     id="polygon146"
     style="fill:#2ca02c;stroke:#000000"
     transform="translate(4,699.759)" />
  <text
     x="201"
     y="437.45901"
     font-size="14.00"
     id="text148"
     style="font-size:14px;font-family:FreeSans;text-anchor:middle">actualizaciones a estables</text>
  <g
     class="edge"
     id="edge17"
     transform="translate(4,699.759)">
    <title
       id="title151">pu-&gt;su</title>
    <path
       style="fill:none;stroke:#000000"
       inkscape:connector-curvature="0"
       id="path153"
       d="m 161.748,-356.809 c 6.705,17.082 17.08,43.513 24.841,63.286" />
    <polygon
       style="fill:none;stroke:#000000"
       id="polygon155"
       points="183.357,-292.178 189.873,-294.736 189.873,-294.736 190.269,-284.149 " />
  </g>
  <polygon
     points="413,-132 413,-168 413,-168 305,-168 305,-132 "
     id="polygon163"
     style="fill:#aaeeff;stroke:#000000"
     transform="translate(4,699.759)" />
  <text
     x="363"
     y="553.45898"
     font-size="14.00"
     id="text165"
     style="font-size:14px;font-family:FreeSans;text-anchor:middle">
    <tspan
       style="-inkscape-font-specification:'FreeSans Semi-Bold';font-family:FreeSans;font-weight:600;font-style:normal;font-stretch:normal;font-variant:normal"
       id="tspan4331">antigua estable</tspan>
  </text>
  <g
     id="g4352"
     transform="translate(3.1211306,0)">
    <path
       style="fill:none;stroke:#000000;stroke-width:0.98786569"
       inkscape:connector-curvature="0"
       id="path170"
       d="m 337.81229,452.07301 5.7e-4,67.71585"
       sodipodi:nodetypes="cc" />
    <polygon
       transform="matrix(0.97348541,0.22874909,-0.22874909,0.97348541,-46.261617,612.21511)"
       style="fill:none;stroke:#000000"
       id="polygon172"
       points="356.05,-178.641 356.05,-178.641 354.949,-168.104 349.239,-177.028 " />
  </g>
  <polygon
     points="92,-248 92,-284 92,-284 16,-284 16,-248 "
     id="polygon180"
     style="fill:#2ca02c;stroke:#000000"
     transform="translate(4,699.759)" />
  <text
     x="58"
     y="437.45901"
     font-size="14.00"
     id="text182"
     style="font-size:14px;font-family:FreeSans;text-anchor:middle">seguridad</text>
  <g
     class="edge"
     id="edge13"
     transform="translate(4,699.759)">
    <title
       id="title185">security-&gt;pu</title>
    <path
       style="fill:none;stroke:#000000"
       inkscape:connector-curvature="0"
       id="path187"
       d="m 70.1871,-284.149 c 16.6238,-17.611 42.6599,-45.194 61.5009,-65.155" />
    <polygon
       style="fill:none;stroke:#000000"
       id="polygon189"
       points="134.454,-347.134 129.363,-351.939 129.363,-351.939 138.773,-356.809 " />
  </g>
  <g
     class="node"
     id="node12"
     transform="translate(4,699.759)">
    <title
       id="title192">archive</title>
    <g
       id="a_node12">
      <a
         id="a195"
         xlink:title="archivo"
         xlink:href="http://archive.debian.org">
        <polygon
           style="fill:none;stroke:#000000"
           id="polygon197"
           points="329,-16 389,-16 389,-52 389,-52 329,-52 " />
        <text
           style="font-size:14px;font-family:FreeSans;text-anchor:middle"
           id="text199"
           font-size="14.00"
           y="-30.299999"
           x="359">archivo</text>
      </a>
    </g>
  </g>
  <g
     class="edge"
     id="edge12"
     transform="translate(4,699.759)">
    <title
       id="title202">oldstable-&gt;archive</title>
    <path
       style="fill:none;stroke:#000000"
       inkscape:connector-curvature="0"
       id="path204"
       d="m 359,-131.686 c 0,18.437 0,47.87 0,69.4237" />
    <polygon
       style="fill:none;stroke:#000000"
       id="polygon206"
       points="355.5,-62.1036 362.5,-62.1035 362.5,-62.1035 359,-52.1036 " />
  </g>
  <g
     class="node"
     id="node11"
     transform="translate(4,699.759)">
    <title
       id="title209">note</title>
    <polygon
       style="fill:none;stroke:#000000"
       id="polygon211"
       points="16.5,-125 269.5,-125 269.5,-169 263.5,-175 263.5,-175 16.5,-175 " />
    <polyline
       style="fill:none;stroke:#000000"
       id="polyline213"
       points="263.5,-175 263.5,-169 " />
    <polyline
       style="fill:none;stroke:#000000"
       id="polyline215"
       points="269.5,-169 263.5,-169 " />
    <text
       style="font-size:14px;font-family:FreeSans;text-anchor:start"
       id="text217"
       font-size="14.00"
       y="-160.8"
       x="28">Nota: antigua estable (</text>
    <text
       style="font-style:italic;font-size:14px;font-family:FreeSans;text-anchor:start"
       id="text219"
       font-size="14.00"
       font-style="italic"
       y="-160.8"
       x="165">oldstable</text>
    <text
       style="font-size:14px;font-family:FreeSans;text-anchor:start"
       id="text221"
       font-size="14.00"
       y="-160.8"
       x="220">) tiene</text>
    <text
       style="font-size:14px;font-family:FreeSans;text-anchor:start"
       id="text223"
       font-size="14.00"
       y="-146.8"
       x="28">la misma configuración que el estable.</text>
    <text
       style="font-size:14px;font-family:FreeSans;text-anchor:start"
       id="text225"
       font-size="14.00"
       y="-132.8"
       x="24.5">No se detalla aquí para evitar desorden</text>
  </g>
  <g
     class="node"
     id="node13"
     transform="translate(4,699.759)">
    <title
       id="title228">maint</title>
    <g
       id="a_node13">
      <a
         id="a231"
         xlink:title="mantenedores"
         xlink:href="https://wiki.debian.org/Maintainers">
        <ellipse
           style="fill:none;stroke:#000000"
           id="ellipse233"
           ry="18"
           rx="66.888199"
           cy="-629.87903"
           cx="281" />
        <text
           style="font-size:14px;font-family:FreeSans;text-anchor:middle"
           id="text235"
           font-size="14.00"
           y="-626.17902"
           x="281">mantenedores</text>
      </a>
    </g>
  </g>
  <path
     sodipodi:nodetypes="cc"
     d="m 299.04455,87.45892 c 12.97265,17.79456 46.87569,55.70102 68.58605,86.456"
     id="path240"
     inkscape:connector-curvature="0"
     style="fill:none;stroke:#000000" />
  <polygon
     transform="matrix(0.02639937,-0.99965148,0.99965148,0.02639937,886.27763,312.60602)"
     points="116.866,-516.088 123.126,-524.636 127.09,-518.867 127.09,-518.867 "
     id="polygon242"
     style="fill:none;stroke:#000000" />
  <g
     class="edge"
     id="edge6"
     transform="translate(4,699.759)">
    <title
       id="title245">maint-&gt;experimental</title>
    <path
       style="fill:none;stroke:#000000"
       inkscape:connector-curvature="0"
       id="path247"
       d="m 320.521,-615.18 c 27.488,10.641 64.138,27.123 92.479,48.18 16.13,11.984 31.236,28.763 42.38,42.654" />
    <polygon
       style="fill:none;stroke:#000000"
       id="polygon249"
       points="452.872,-521.871 458.391,-526.176 458.391,-526.176 461.781,-516.138 " />
  </g>
  <g
     class="edge"
     id="edge7"
     transform="translate(4,699.759)">
    <title
       id="title252">maint-&gt;tpu</title>
    <path
       style="fill:none;stroke:#000000;stroke-dasharray:5, 2"
       inkscape:connector-curvature="0"
       id="path254"
       d="m 279.141,-611.632 c -2.343,21.736 -6.399,59.359 -9.173,85.094" />
    <polygon
       style="fill:none;stroke:#000000"
       id="polygon256"
       points="266.459,-526.636 273.418,-525.886 273.418,-525.886 268.867,-516.318 " />
  </g>
  <g
     class="edge"
     id="edge5"
     transform="translate(4,699.759)">
    <title
       id="title259">maint-&gt;pu</title>
    <path
       style="fill:none;stroke:#000000"
       inkscape:connector-curvature="0"
       id="path261"
       d="M 240.622,-615.28 C 179.693,-593.848 69.0058,-551.048 47,-516 c -27.507,43.809 27.9959,90.605 69.144,117.473" />
    <polygon
       style="fill:none;stroke:#000000"
       id="polygon263"
       points="114.355,-395.516 118.111,-401.423 118.111,-401.423 124.672,-393.104 " />
  </g>
  <path
     sodipodi:nodetypes="cc"
     d="m 408.34669,219.49639 c 29.65917,72.26052 22.24507,161.52095 17.88049,184.38407"
     id="path268"
     inkscape:connector-curvature="0"
     style="fill:none;stroke:#000000;stroke-width:1;stroke-linecap:butt;stroke-miterlimit:4;stroke-dasharray:4, 2;stroke-dashoffset:0" />
  <g
     class="node"
     id="node14"
     transform="translate(4,699.759)">
    <title
       id="title273">secteam</title>
    <g
       id="a_node14">
      <a
         id="a276"
         xlink:title="equipo de seguridad"
         xlink:href="https://wiki.debian.org/Teams/Security">
        <ellipse
           style="fill:none;stroke:#000000"
           id="ellipse278"
           ry="18"
           rx="90.184196"
           cy="-629.87903"
           cx="106" />
        <text
           style="font-size:14px;font-family:FreeSans;text-anchor:middle"
           id="text280"
           font-size="14.00"
           y="-626.17902"
           x="106">equipo de seguridad</text>
      </a>
    </g>
  </g>
  <path
     sodipodi:nodetypes="cc"
     d="m 108.141,88.127 c -2.343,21.736 129.05255,28.50523 229.23654,87.67001"
     id="path285"
     inkscape:connector-curvature="0"
     style="fill:none;stroke:#000000" />
  <polygon
     points="98.4184,-525.886 93.8668,-516.318 91.4587,-526.636 98.4184,-525.886 "
     id="polygon287"
     style="fill:none;stroke:#000000"
     transform="matrix(0.53796508,-0.84296712,0.84296712,0.53796508,730.11516,539.18889)" />
  <g
     class="edge"
     id="edge3"
     transform="translate(4,699.759)">
    <title
       id="title290">secteam-&gt;security</title>
    <path
       style="fill:none;stroke:#000000"
       inkscape:connector-curvature="0"
       id="path292"
       d="M 91.7084,-611.844 C 75.0051,-590.827 48.1103,-553.283 36,-516 c -21.8659,67.318 -19.2782,88.97 -9,159 3.1882,21.722 10.4866,45.48 16.6924,63.128" />
    <polygon
       style="fill:none;stroke:#000000"
       id="polygon294"
       points="40.4824,-292.457 47.0635,-294.842 47.0635,-294.842 47.1807,-284.248 " />
  </g>
  <g
     class="node"
     id="node15"
     transform="translate(36.430237,699.759)">
    <title
       id="title297">persona</title>
    <ellipse
       style="fill:none;stroke:#000000"
       id="ellipse299"
       ry="18"
       rx="48.992599"
       cy="-629.87903"
       cx="724" />
    <text
       style="font-size:14px;font-family:FreeSans;text-anchor:middle"
       id="text301"
       font-size="14.00"
       y="-626.17902"
       x="724">subidores</text>
  </g>
  <g
     class="node"
     id="node19"
     transform="translate(36.430237,699.759)">
    <title
       id="title304">repository</title>
    <polygon
       style="fill:none;stroke:#000000"
       id="polygon306"
       points="764,-480 764,-516 764,-516 684,-516 684,-480 " />
    <text
       style="font-size:14px;font-family:FreeSans;text-anchor:middle"
       id="text308"
       font-size="14.00"
       y="-494.29999"
       x="724">repositorio</text>
  </g>
  <g
     class="edge"
     id="edge19"
     transform="translate(36.430237,699.759)">
    <title
       id="title311">persona-&gt;repository</title>
    <path
       style="fill:none;stroke:#000000"
       inkscape:connector-curvature="0"
       id="path313"
       d="m 724,-611.632 c 0,21.736 0,59.359 0,85.094" />
    <polygon
       style="fill:none;stroke:#000000"
       id="polygon315"
       points="727.5,-526.318 727.5,-526.318 724,-516.318 720.5,-526.318 " />
    <text
       style="font-size:14px;font-family:FreeSans;text-anchor:middle"
       id="text317"
       font-size="14.00"
       y="-555.79999"
       x="750">subido a</text>
  </g>
  <g
     class="node"
     id="node16"
     transform="translate(4,699.759)">
    <title
       id="title320">paquete</title>
    <polygon
       style="fill:none;stroke:#000000"
       id="polygon322"
       points="610.673,-603.559 613.926,-603.851 617.117,-604.213 620.235,-604.646 623.266,-605.149 626.2,-605.719 629.024,-606.355 631.728,-607.056 634.303,-607.819 636.74,-608.643 639.03,-609.525 641.167,-610.462 643.143,-611.453 644.954,-612.495 646.595,-613.584 648.062,-614.718 649.353,-615.893 650.467,-617.107 651.402,-618.355 652.159,-619.636 652.738,-620.944 653.142,-622.277 653.374,-623.63 653.436,-625.001 653.333,-626.385 653.07,-627.779 652.652,-629.179 652.084,-630.58 651.373,-631.979 650.525,-633.373 649.548,-634.757 648.448,-636.128 647.233,-637.482 645.909,-638.815 644.486,-640.123 642.969,-641.403 641.366,-642.652 639.685,-643.866 637.932,-645.041 636.113,-646.175 634.236,-647.264 632.307,-648.305 630.33,-649.296 628.313,-650.234 626.259,-651.116 624.173,-651.94 622.06,-652.703 619.923,-653.404 617.767,-654.04 615.594,-654.61 613.406,-655.112 611.208,-655.545 609,-655.908 606.784,-656.199 604.564,-656.419 602.34,-656.565 600.114,-656.638 597.886,-656.638 595.66,-656.565 593.436,-656.419 591.216,-656.199 589,-655.908 586.792,-655.545 584.594,-655.112 582.406,-654.61 580.233,-654.04 578.077,-653.404 575.94,-652.703 573.827,-651.94 571.741,-651.116 569.687,-650.234 567.67,-649.296 565.693,-648.305 563.764,-647.264 561.887,-646.175 560.068,-645.041 558.315,-643.866 556.634,-642.652 555.031,-641.403 553.514,-640.123 552.091,-638.815 550.767,-637.482 549.552,-636.128 548.452,-634.757 547.475,-633.373 546.627,-631.979 545.916,-630.58 545.348,-629.179 544.93,-627.779 544.667,-626.385 544.564,-625.001 544.626,-623.63 544.858,-622.277 545.262,-620.944 545.841,-619.636 546.598,-618.355 547.533,-617.107 548.647,-615.893 549.938,-614.718 551.405,-613.584 553.046,-612.495 554.857,-611.453 556.833,-610.462 558.97,-609.525 561.26,-608.643 563.697,-607.819 566.272,-607.056 568.976,-606.355 571.8,-605.719 574.734,-605.149 577.765,-604.646 580.883,-604.213 584.074,-603.851 587.327,-603.559 590.628,-603.34 593.963,-603.194 597.319,-603.12 600.681,-603.12 604.037,-603.194 604.037,-603.194 607.372,-603.34 " />
    <text
       style="font-size:14px;font-family:FreeSans;text-anchor:middle"
       id="text324"
       font-size="14.00"
       y="-633.67902"
       x="599">paquete</text>
    <text
       style="font-size:14px;font-family:FreeSans;text-anchor:middle"
       id="text326"
       font-size="14.00"
       y="-618.67902"
       x="599">aceptado</text>
  </g>
  <polygon
     points="625,-516 549,-516 549,-480 625,-480 625,-516 "
     id="polygon331"
     style="fill:#ff5555;stroke:#000000"
     transform="translate(16,699.759)" />
  <text
     x="603"
     y="205.45901"
     font-size="14.00"
     id="text333"
     style="font-size:14px;font-family:FreeSans;text-anchor:middle">desarrollo</text>
  <g
     class="edge"
     id="edge24"
     transform="matrix(0.99311702,-0.08987127,0.08987127,0.99311702,64.833746,748.92288)">
    <title
       id="title336">paquete-&gt;development</title>
    <path
       style="fill:none;stroke:#000000"
       inkscape:connector-curvature="0"
       id="path338"
       d="m 596.6,-602.908 c -2.045,22.138 -4.976,53.866 -7.061,76.427" />
    <polygon
       style="fill:#000000;stroke:#000000"
       id="polygon340"
       points="588.591,-516.224 586.026,-526.504 592.997,-525.859 592.997,-525.859 " />
  </g>
  <polygon
     points="636.5,-284 553.5,-284 553.5,-248 636.5,-248 636.5,-284 "
     id="polygon345"
     style="fill:#2ca02c;stroke:#000000"
     transform="translate(8,699.759)" />
  <text
     x="603"
     y="437.45901"
     font-size="14.00"
     id="text347"
     style="font-size:14px;font-family:FreeSans;text-anchor:middle">producción</text>
  <polygon
     points="662.5,-168 545.5,-168 545.5,-132 662.5,-132 662.5,-168 "
     id="polygon352"
     style="fill:#aaeeff;stroke:#000000"
     transform="translate(-1,699.759)" />
  <text
     x="603"
     y="553.45898"
     font-size="14.00"
     id="text354"
     style="font-size:14px;font-family:FreeSans;text-anchor:middle">depreciado, LTS</text>
  <polygon
     points="660,-393 660,-357 740,-357 740,-393 740,-393 "
     id="polygon366"
     style="fill:none;stroke:#000000"
     transform="translate(60.430237,699.759)" />
  <text
     x="760.43024"
     y="328.45901"
     font-size="14.00"
     id="text368"
     style="font-size:14px;font-family:FreeSans;text-anchor:middle">repositorio</text>
  <path
     d="m 720.15122,211.16386 c -36.31024,9.43005 -88.70392,25.86411 -100.59762,44.59316 -3.44996,5.43334 -3.31254,9.46607 0,15.00645 8.39466,14.04103 60.98064,41.80419 89.67705,52.0806"
     id="path373"
     inkscape:connector-curvature="0"
     style="fill:none;stroke:#000000;stroke-width:0.94486409"
     sodipodi:nodetypes="cccc" />
  <polygon
     points="649.237,-386.797 651.321,-393.48 651.321,-393.48 659.826,-387.161 "
     id="polygon375"
     style="fill:#000000;stroke:#000000"
     transform="translate(59.112621,712.72036)" />
  <text
     x="656.38416"
     y="266.95901"
     font-size="14.00"
     id="text377"
     style="font-size:14px;font-family:FreeSans;text-anchor:middle">automático</text>
  <g
     class="edge"
     id="edge21"
     transform="translate(36.430237,699.759)">
    <title
       id="title380">repository-&gt;subrepository</title>
    <path
       style="fill:none;stroke:#000000"
       inkscape:connector-curvature="0"
       id="path382"
       d="m 693.78813,-479.805 c -12.578,8.907 -25.823,21.033 -32.7,35.805 -6.897,14.815 3.90076,29.63549 14.50276,42.31949"
       sodipodi:nodetypes="csc" />
    <polygon
       style="fill:none;stroke:#000000"
       id="polygon384"
       points="675.502,-402.919 679.665,-393.176 670.335,-398.197 675.502,-402.919 "
       transform="translate(2.9962719,-1.233759)" />
    <text
       style="font-size:14px;font-family:FreeSans;text-anchor:middle"
       id="text386"
       font-size="14.00"
       y="-432.79999"
       x="683.5">manual</text>
  </g>
  <path
     d="m 757.04224,219.839 c -9.96107,21.90636 -15.07569,53.58532 1.27884,80.562"
     id="path391"
     inkscape:connector-curvature="0"
     style="fill:none;stroke:#000000"
     sodipodi:nodetypes="cc" />
  <circle
     cx="760.64581"
     cy="302.45099"
     id="ellipse393"
     r="4.00001"
     style="fill:#000000;stroke:#000000" />
  <text
     x="778.43024"
     y="266.95901"
     font-size="14.00"
     id="text395"
     style="font-size:14px;font-family:FreeSans;text-anchor:middle">aprobado</text>
  <path
     sodipodi:nodetypes="cc"
     d="m 787.51413,219.79369 c 30.09481,29.95728 29.69449,63.62273 19.84193,76.78732"
     id="path400"
     inkscape:connector-curvature="0"
     style="fill:none;stroke:#000000;stroke-dasharray:5, 2" />
  <polygon
     points="748.183,-395.576 737.883,-393.091 744.386,-401.456 748.183,-395.576 "
     id="polygon402"
     style="fill:#000000;stroke:#000000"
     transform="matrix(0.92076143,-0.39012613,0.39012613,0.92076143,275.45844,954.94727)" />
  <text
     x="833.19275"
     y="266.95901"
     font-size="14.00"
     id="text404"
     style="font-size:14px;font-family:FreeSans;text-anchor:middle">inusal</text>
  <polygon
     points="614.5,-393 549.5,-393 549.5,-357 614.5,-357 614.5,-393 "
     id="polygon409"
     style="fill:#ffdd55;stroke:#000000"
     transform="translate(21,699.759)" />
  <text
     x="603"
     y="328.45901"
     font-size="14.00"
     id="text411"
     style="font-size:14px;font-family:FreeSans;text-anchor:middle">pruebas</text>
  <g
     class="node"
     id="node23"
     transform="translate(-1,699.759)">
    <title
       id="title428">unsupported</title>
    <polygon
       style="fill:none;stroke:#000000"
       id="polygon430"
       points="645.5,-16 645.5,-52 645.5,-52 562.5,-52 562.5,-16 " />
    <text
       style="font-size:14px;font-family:FreeSans;text-anchor:middle"
       id="text432"
       font-size="14.00"
       y="-30.299999"
       x="604">sin soporte</text>
  </g>
  <g
     class="edge"
     id="edge28"
     transform="translate(-0.82499765,699.759)">
    <title
       id="title435">deprecated-&gt;unsupported</title>
    <path
       style="fill:none;stroke:#000000"
       inkscape:connector-curvature="0"
       id="path437"
       d="m 604,-131.686 c 0,18.437 0,47.87 0,69.4237" />
    <polygon
       style="fill:#000000;stroke:#000000"
       id="polygon439"
       points="607.5,-62.1035 607.5,-62.1035 604,-52.1036 600.5,-62.1036 " />
  </g>
  <g
     transform="matrix(0.99311702,-0.08987127,0.08987127,0.99311702,65.003669,870.88877)"
     id="g4833"
     class="edge">
    <title
       id="title4835">paquete-&gt;development</title>
    <path
       d="m 596.6,-602.908 c -2.045,22.138 -4.976,53.866 -7.061,76.427"
       id="path4837"
       inkscape:connector-curvature="0"
       style="fill:none;stroke:#000000" />
    <polygon
       points="586.026,-526.504 592.997,-525.859 592.997,-525.859 588.591,-516.224 "
       id="polygon4839"
       style="fill:#000000;stroke:#000000" />
  </g>
  <g
     class="edge"
     id="g4841"
     transform="matrix(1.0108287,-0.07395138,0.09147407,0.81719524,55.405776,879.8268)">
    <title
       id="title4843">paquete-&gt;development</title>
    <path
       style="fill:none;stroke:#000000"
       inkscape:connector-curvature="0"
       id="path4845"
       d="m 596.6,-602.908 c -2.045,22.138 -4.976,53.866 -7.061,76.427" />
    <polygon
       style="fill:#000000;stroke:#000000"
       id="polygon4847"
       points="588.591,-516.224 586.026,-526.504 592.997,-525.859 592.997,-525.859 " />
  </g>
  <g
     transform="matrix(1.0034861,-0.08118915,0.0908096,0.89717583,59.383463,1040.9054)"
     id="g4849"
     class="edge"
     style="fill:#2ca02c">
    <title
       id="title4851">paquete-&gt;development</title>
    <path
       d="m 596.6,-602.908 c -2.045,22.138 -4.976,53.866 -7.061,76.427"
       id="path4853"
       inkscape:connector-curvature="0"
       style="fill:#2ca02c;stroke:#000000" />
    <polygon
       points="592.997,-525.859 592.997,-525.859 588.591,-516.224 586.026,-526.504 "
       id="polygon4855"
       style="fill:#2ca02c;stroke:#000000" />
  </g>
  <path
     style="fill:none;stroke:#000000"
     inkscape:connector-curvature="0"
     id="path4364"
     d="m 382.14639,342.95 c 6.705,17.082 16.2626,41.71473 24.0236,61.48773"
     sodipodi:nodetypes="cc" />
  <polygon
     style="fill:none;stroke:#000000"
     id="polygon4366"
     points="189.873,-294.736 189.873,-294.736 190.269,-284.149 183.357,-292.178 "
     transform="translate(219.74447,698.12421)" />
  <polygon
     transform="matrix(0.2711616,0.96253384,-0.96253384,0.2711616,-39.022502,217.89215)"
     style="fill:#000000;stroke:#000000"
     id="polygon4370"
     points="306.795,-400.515 306.795,-400.515 314.374,-393.111 303.832,-394.173 " />
</svg>
